<svg xmlns="http://www.w3.org/2000/svg" viewBox="0 0 1240 720" preserveAspectRatio="xMidYMid slice" role="presentation" aria-hidden="true">
  <rect width="1240" height="720" fill="#FFFAFB"/>
  <g fill="none" stroke="#2D1B25" stroke-width="0.6" opacity="0.30">
    <path d="M0 90 C 160 60, 320 130, 480 100 S 800 50, 960 90 1240 70 1240 70"/>
    <path d="M0 140 C 180 110, 340 180, 520 150 S 820 110, 1000 140 1240 130 1240 130"/>
    <path d="M0 200 C 200 160, 360 240, 540 200 S 820 160, 1020 190 1240 180 1240 180"/>
    <path d="M0 260 C 220 220, 380 300, 560 260 S 820 220, 1040 250 1240 240 1240 240"/>
    <path d="M0 320 C 240 280, 420 360, 580 320 S 820 280, 1060 310 1240 300 1240 300"/>
    <path d="M0 380 C 260 340, 440 420, 600 380 S 820 340, 1080 370 1240 360 1240 360"/>
    <path d="M0 440 C 280 400, 460 480, 620 440 S 820 400, 1100 430 1240 420 1240 420"/>
    <path d="M0 500 C 300 460, 480 540, 640 500 S 820 460, 1120 490 1240 480 1240 480"/>
    <path d="M0 560 C 320 520, 500 600, 660 560 S 820 520, 1140 550 1240 540 1240 540"/>
    <path d="M0 620 C 340 580, 520 660, 680 620 S 820 580, 1160 610 1240 600 1240 600"/>
    <path d="M0 680 C 360 640, 540 720, 700 680 S 820 640, 1180 670 1240 660 1240 660"/>
  </g>
  <circle cx="860" cy="270" r="22" fill="#FF8AB5" opacity="0.20"/>
  <circle cx="860" cy="270" r="7" fill="#E45A92"/>
  <circle cx="380" cy="430" r="20" fill="#88D9BC" opacity="0.22"/>
  <circle cx="380" cy="430" r="6" fill="#88D9BC"/>
</svg>
