<?xml version="1.0" standalone="no"?>
<!DOCTYPE svg PUBLIC "-//W3C//DTD SVG 20010904//EN"
 "http://www.w3.org/TR/2001/REC-SVG-20010904/DTD/svg10.dtd">
<svg version="1.0" xmlns="http://www.w3.org/2000/svg"
 width="232.000000pt" height="217.000000pt" viewBox="0 0 232.000000 217.000000"
 preserveAspectRatio="xMidYMid meet">

<g transform="translate(0.000000,217.000000) scale(0.100000,-0.100000)"
fill="#000000" stroke="none">
<path d="M1977 2069 c-32 -19 -50 -75 -36 -116 6 -19 9 -35 7 -37 -1 -1 -87
-58 -190 -125 -203 -134 -191 -120 -171 -193 4 -16 -4 -18 -75 -18 -142 0
-308 -44 -439 -116 l-62 -34 -38 77 -38 78 -320 38 c-176 20 -326 39 -332 42
-7 2 -13 15 -13 29 0 30 -52 76 -85 76 -91 0 -132 -103 -64 -164 27 -24 38
-28 73 -23 l41 6 188 -280 188 -279 63 0 63 0 -4 -87 c-9 -159 41 -297 142
-392 64 -61 133 -96 232 -120 68 -16 75 -19 57 -29 -12 -6 -41 -16 -64 -21
-37 -8 -47 -7 -68 10 -45 35 -104 14 -117 -41 -16 -66 81 -109 123 -56 17 22
23 24 58 16 21 -5 69 -10 107 -10 72 0 80 -7 51 -48 -10 -14 -26 -22 -44 -22
-31 0 -70 -39 -70 -70 0 -10 9 -29 21 -44 37 -48 115 -25 121 35 3 27 9 33 57
49 l54 18 32 -34 c36 -38 76 -44 123 -20 42 21 62 49 87 118 13 35 28 63 34
63 7 0 28 -34 49 -75 44 -89 76 -115 139 -115 37 0 49 5 69 28 16 18 24 41 24
63 l0 36 51 -7 c33 -5 58 -15 74 -31 28 -28 64 -31 94 -6 28 22 31 75 6 102
-19 21 -79 28 -90 10 -9 -15 -46 -11 -83 9 l-34 17 64 23 c34 13 68 22 73 22
6 -1 27 -4 48 -7 48 -8 77 15 77 62 0 79 -111 98 -135 23 -6 -19 -12 -20 -53
-14 -43 6 -83 25 -55 25 20 0 135 113 169 166 120 187 100 444 -49 639 l-46
60 43 45 43 45 -45 210 -45 211 32 31 c44 44 44 100 0 137 -32 28 -80 34 -112
15z m-244 -562 c40 -22 67 -61 67 -96 0 -24 -53 -87 -81 -96 -10 -4 -19 -13
-19 -21 0 -8 -9 -14 -20 -14 -11 0 -20 7 -20 15 0 8 -4 15 -10 15 -5 0 -10 -7
-10 -15 0 -8 -4 -15 -10 -15 -5 0 -10 7 -10 15 0 8 -4 15 -10 15 -5 0 -10 -7
-10 -15 0 -9 -9 -15 -25 -15 -14 0 -25 4 -25 10 0 5 -17 18 -37 29 -54 27 -77
56 -77 96 0 102 180 158 297 92z m-283 -251 c25 -9 78 -35 118 -57 l73 -40 87
54 c48 30 92 57 99 61 7 4 28 0 47 -8 45 -19 126 -74 126 -86 0 -5 -24 -6 -54
-3 -51 5 -57 4 -85 -24 -101 -101 1 -299 124 -240 54 26 69 57 62 132 -2 36
-1 67 3 70 13 8 49 -49 72 -113 16 -42 21 -79 20 -142 -1 -181 -80 -303 -232
-361 -51 -19 -60 -17 -60 16 0 11 -13 36 -29 55 -30 36 -39 38 -161 31 -8 0
-36 2 -63 5 -35 5 -54 2 -73 -11 -34 -22 -57 -79 -50 -120 6 -32 5 -32 -36
-38 -59 -8 -119 7 -215 54 -96 48 -171 120 -211 206 -23 50 -27 71 -27 148 0
83 3 96 34 160 38 77 159 208 244 262 46 30 49 31 95 18 26 -7 67 -20 92 -29z
m580 -112 c0 -8 -4 -12 -10 -9 -5 3 -10 10 -10 16 0 5 5 9 10 9 6 0 10 -7 10
-16z m-82 -6 c19 -19 14 -56 -8 -63 -41 -13 -69 43 -32 64 22 13 26 13 40 -1z
m54 -126 c-15 -15 -19 -15 -33 -2 -14 13 -14 17 -1 33 14 16 17 16 33 1 16
-15 16 -17 1 -32z m-94 29 c20 -12 10 -46 -14 -49 -25 -4 -40 24 -23 44 13 16
19 17 37 5z m-252 -485 c30 -30 34 -41 34 -83 0 -39 -6 -59 -29 -89 -15 -22
-34 -58 -41 -79 -19 -59 -48 -104 -80 -120 -39 -20 -62 -19 -94 6 -44 35 -34
109 27 191 16 21 23 25 34 16 21 -17 27 -1 9 26 -9 14 -16 45 -16 69 0 95 89
130 156 63z m124 19 c16 -8 34 -24 40 -34 17 -32 12 -86 -11 -115 -23 -29 -19
-47 5 -27 20 17 78 -43 102 -104 21 -57 12 -94 -30 -113 -59 -29 -123 20 -162
126 -10 26 -24 51 -31 55 -11 7 -11 12 2 30 20 29 20 126 -1 155 -8 12 -12 27
-9 32 9 15 62 12 95 -5z m418 -67 c16 -16 15 -53 -2 -68 -36 -29 -92 13 -75
58 9 25 56 31 77 10z m-1187 -128 c22 -12 26 -59 7 -78 -15 -15 -51 -15 -66 0
-18 18 -15 65 6 77 22 13 29 13 53 1z m1149 -54 c29 -36 -13 -92 -57 -75 -26
9 -32 56 -11 77 16 16 53 15 68 -2z m-919 -126 c29 -16 26 -67 -5 -81 -34 -16
-66 3 -66 41 0 41 33 60 71 40z"/>
<path d="M1502 1408 c-17 -17 -15 -45 4 -52 22 -9 46 13 42 38 -4 24 -28 32
-46 14z"/>
<path d="M1685 1410 c-9 -15 4 -47 22 -54 26 -10 47 17 34 43 -12 22 -45 28
-56 11z"/>
<path d="M1221 1152 c-52 -26 -74 -63 -79 -131 -5 -70 14 -119 57 -144 39 -23
96 -22 131 3 36 26 65 98 56 141 -4 23 -1 38 11 51 19 21 11 37 -11 19 -21
-18 -31 17 -11 39 9 10 12 21 7 24 -5 3 -15 -1 -22 -9 -10 -12 -17 -11 -48 5
-45 24 -48 24 -91 2z m83 -54 c16 -26 -26 -68 -52 -52 -19 12 -27 37 -18 60 8
20 56 14 70 -8z m-69 -108 c0 -18 -6 -26 -23 -28 -24 -4 -38 18 -28 44 3 9 15
14 28 12 17 -2 23 -10 23 -28z m92 -25 c-18 -9 -24 -8 -36 8 -11 16 -11 20 5
32 17 12 21 11 36 -8 15 -20 15 -22 -5 -32z"/>
<path d="M1620 980 c-11 -11 -20 -23 -20 -27 1 -28 57 -57 87 -46 23 8 53 33
53 45 0 19 -42 48 -70 48 -17 0 -39 -9 -50 -20z m79 -9 c23 -15 5 -41 -29 -41
-19 0 -33 6 -37 16 -6 17 12 34 37 34 8 0 21 -4 29 -9z"/>
</g>
</svg>
